<svg xmlns="http://www.w3.org/2000/svg" viewBox="0 0 24 24" fill="currentColor" class="w-6 h-6">
  <path fill-rule="evenodd" d="M12 2.25c-5.385 0-9.75 4.365-9.75 9.75s4.365 9.75 9.75 9.75 9.75-4.365 9.75-9.75S17.385 2.25 12 2.25zm-2.625 6c-.54 0-.975.435-.975.975v.038c0 .434.28.803.67 1.01l2.868 1.482c.05.026.09.06.121.102.069.085.106.185.106.288V15a.75.75 0 01-1.5 0v-1.639l-2.53-1.313c-.42-.218-.67-.648-.67-1.11V9.225c0-.54.435-.975.975-.975h.01a.75.75 0 01.75.75V9.75h.008a.75.75 0 01.75.75v.01a.75.75 0 01-.75.75h-.008v.002a.75.75 0 01-.75.75h-.01a.75.75 0 01-.75-.75v-.002h-.008a.75.75 0 01-.75-.75V9.225c0-.54.435-.975.975-.975h.01z" clip-rule="evenodd" />
</svg>
