<svg xmlns="http://www.w3.org/2000/svg" viewBox="0 0 24 24" fill="currentColor" class="w-6 h-6">
  <path d="M12 2C6.48 2 2 6.48 2 12s4.48 10 10 10 10-4.48 10-10S17.52 2 12 2zm0 18c-4.41 0-8-3.59-8-8s3.59-8 8-8 8 3.59 8 8-3.59 8-8 8z" />
  <path d="M12 12.5c-1.1 0-2-.9-2-2s.9-2 2-2 2 .9 2 2-.9 2-2 2zm0-5c-1.66 0-3 1.34-3 3s1.34 3 3 3 3-1.34 3-3-1.34-3-3-3z" />
  <path d="M12 14.5c-2.49 0-4.5 2.01-4.5 4.5h9c0-2.49-2.01-4.5-4.5-4.5zm0 1.5c1.1 0 2.12.42 2.83 1.17H9.17c.71-.75 1.73-1.17 2.83-1.17z" />
</svg>
